<svg xmlns="http://www.w3.org/2000/svg" width="32.948" height="47.924" viewBox="0 0 32.948 47.924"><path d="M16.474,32.948a8.986,8.986,0,0,0,8.986-8.986V8.986a8.986,8.986,0,0,0-17.972,0V23.962A8.986,8.986,0,0,0,16.474,32.948ZM31.45,17.972h-1.5a1.5,1.5,0,0,0-1.5,1.5v4.493A12,12,0,0,1,15.277,35.885c-6.225-.607-10.784-6.2-10.784-12.457V19.469a1.5,1.5,0,0,0-1.5-1.5H1.5a1.5,1.5,0,0,0-1.5,1.5v3.759C0,31.619,5.988,39.1,14.228,40.235v3.2H8.986a1.5,1.5,0,0,0-1.5,1.5v1.5a1.5,1.5,0,0,0,1.5,1.5H23.962a1.5,1.5,0,0,0,1.5-1.5v-1.5a1.5,1.5,0,0,0-1.5-1.5H18.72V40.271A16.49,16.49,0,0,0,32.948,23.962V19.469A1.5,1.5,0,0,0,31.45,17.972Z"/></svg>