<svg xmlns="http://www.w3.org/2000/svg" width="192.682" height="132.053" viewBox="0 0 192.682 132.053"><defs><style>.a{fill:#d4dfe5;}.b{fill:#fff;}.c{fill:#c4e9fb;}.d{fill:#ffc100;}.e{fill:#293763;}.f,.p{fill:#00d6ce;}.g{fill:#00b7ad;}.h{fill:#ff9d02;}.i{fill:#fdd0a2;}.j{fill:#2e1036;}.k{fill:#f8ab94;}.l{fill:#b5693a;}.m{fill:#f38785;}.n{fill:#b15f61;}.o{fill:#cdf7f5;}.p{stroke:#00d6ce;stroke-linecap:round;stroke-linejoin:round;stroke-width:4px;}.q{opacity:0.15;}.r{fill:#fd394f;}.s{fill:#ff5270;}</style></defs><g transform="translate(-28.303 -84.908)"><g transform="translate(28.303 106.689)"><g transform="translate(0 41.103)"><g transform="translate(0 23.763)"><g transform="translate(5.474)"><path class="a" d="M134.635,427.657h7.17v7.5h-4.88A14.139,14.139,0,0,0,134.635,427.657Z" transform="translate(-112.549 -425.466)"/><path class="b" d="M55.009,427.657H75.647a14.14,14.14,0,0,1,2.289,7.5H55.009Z" transform="translate(-53.561 -425.466)"/><g transform="translate(1.448 3.596)"><rect class="c" width="29.407" height="0.394"/><rect class="c" width="29.407" height="0.394" transform="translate(0 1.432)"/><rect class="c" width="29.407" height="0.393" transform="translate(0 2.865)"/><rect class="c" width="29.407" height="0.394" transform="translate(0 4.295)"/></g><path class="d" d="M145.685,424.768c0-3.845-2.28-5.565-4.6-5.565h7.041c2.483,3.058,1.23,8.088-.785,11.882h-6.256C143.4,431.085,145.685,429.494,145.685,424.768Z" transform="translate(-117.327 -419.203)"/><path class="e" d="M166.005,419.2h21.554a4.2,4.2,0,0,1,4.2,4.2v3.482a4.2,4.2,0,0,1-4.2,4.2H165.22C167.235,427.291,168.488,422.261,166.005,419.2Z" transform="translate(-135.206 -419.203)"/><path class="d" d="M49.423,457.686a1.1,1.1,0,0,1,1.1-1.1H77.582a1.1,1.1,0,0,1,1.1,1.1h0a1.1,1.1,0,0,1-1.1,1.1H50.519a1.1,1.1,0,0,1-1.1-1.1Z" transform="translate(-49.423 -446.9)"/><path class="d" d="M49.423,420.3a1.1,1.1,0,0,1,1.1-1.1H77.582a1.1,1.1,0,0,1,1.1,1.1h0a1.1,1.1,0,0,1-1.1,1.1H50.519a1.1,1.1,0,0,1-1.1-1.1Z" transform="translate(-49.423 -419.203)"/></g><g transform="translate(0 11.88)"><path class="a" d="M113.514,473.495h7.17v7.5H115.8A14.132,14.132,0,0,0,113.514,473.495Z" transform="translate(-91.428 -471.303)"/><path class="b" d="M33.89,473.495H54.528a14.132,14.132,0,0,1,2.289,7.5H33.89Z" transform="translate(-32.442 -471.303)"/><g transform="translate(1.448 3.597)"><rect class="c" width="29.406" height="0.394"/><rect class="c" width="29.406" height="0.393" transform="translate(0 1.432)"/><rect class="c" width="29.406" height="0.394" transform="translate(0 2.864)"/><rect class="c" width="29.406" height="0.394" transform="translate(0 4.295)"/></g><path class="f" d="M124.564,470.6c0-3.845-2.28-5.566-4.6-5.566H127c2.482,3.059,1.229,8.089-.785,11.883h-6.256C122.284,476.92,124.564,475.328,124.564,470.6Z" transform="translate(-96.206 -465.037)"/><path class="g" d="M144.884,465.037h21.553a4.2,4.2,0,0,1,4.2,4.2v3.482a4.2,4.2,0,0,1-4.2,4.2H144.1C146.114,473.126,147.366,468.1,144.884,465.037Z" transform="translate(-114.086 -465.037)"/><path class="f" d="M28.3,503.523a1.1,1.1,0,0,1,1.1-1.1H56.462a1.1,1.1,0,0,1,1.1,1.1h0a1.1,1.1,0,0,1-1.1,1.1H29.4a1.1,1.1,0,0,1-1.1-1.1Z" transform="translate(-28.303 -492.736)"/><path class="f" d="M28.3,466.133a1.1,1.1,0,0,1,1.1-1.1H56.462a1.1,1.1,0,0,1,1.1,1.1h0a1.1,1.1,0,0,1-1.1,1.1H29.4a1.1,1.1,0,0,1-1.1-1.1Z" transform="translate(-28.303 -465.037)"/></g></g><g transform="translate(34.823 23.763)"><path class="a" d="M247.873,427.657h7.169v7.5h-4.88A14.136,14.136,0,0,0,247.873,427.657Z" transform="translate(-225.786 -425.466)"/><path class="b" d="M168.245,427.657h20.639a14.137,14.137,0,0,1,2.289,7.5H168.245Z" transform="translate(-166.797 -425.466)"/><g transform="translate(1.448 3.596)"><rect class="c" width="29.406" height="0.394"/><rect class="c" width="29.406" height="0.394" transform="translate(0 1.432)"/><rect class="c" width="29.406" height="0.393" transform="translate(0 2.865)"/><rect class="c" width="29.406" height="0.394" transform="translate(0 4.295)"/></g><path class="f" d="M258.921,424.768c0-3.845-2.28-5.565-4.6-5.565h7.041c2.483,3.058,1.23,8.088-.785,11.882h-6.255C256.64,431.085,258.921,429.494,258.921,424.768Z" transform="translate(-230.562 -419.203)"/><path class="g" d="M279.24,419.2h21.553a4.2,4.2,0,0,1,4.2,4.2v3.482a4.2,4.2,0,0,1-4.2,4.2H278.455C280.47,427.291,281.723,422.261,279.24,419.2Z" transform="translate(-248.441 -419.203)"/><path class="f" d="M162.657,457.686a1.1,1.1,0,0,1,1.1-1.1h27.064a1.1,1.1,0,0,1,1.1,1.1h0a1.1,1.1,0,0,1-1.1,1.1H163.753a1.1,1.1,0,0,1-1.1-1.1Z" transform="translate(-162.657 -446.9)"/><path class="f" d="M162.657,420.3a1.1,1.1,0,0,1,1.1-1.1h27.064a1.1,1.1,0,0,1,1.1,1.1h0a1.1,1.1,0,0,1-1.1,1.1H163.753a1.1,1.1,0,0,1-1.1-1.1Z" transform="translate(-162.657 -419.203)"/><g transform="translate(5.55 11.88)"><path class="a" d="M269.282,473.495h7.169v7.5h-4.88A14.132,14.132,0,0,0,269.282,473.495Z" transform="translate(-247.195 -471.303)"/><path class="b" d="M189.656,473.495h20.638a14.132,14.132,0,0,1,2.289,7.5H189.656Z" transform="translate(-188.208 -471.303)"/><g transform="translate(1.448 3.597)"><rect class="c" width="29.406" height="0.394"/><rect class="c" width="29.406" height="0.393" transform="translate(0 1.432)"/><rect class="c" width="29.406" height="0.394" transform="translate(0 2.864)"/><rect class="c" width="29.406" height="0.394" transform="translate(0 4.295)"/></g><path class="d" d="M280.331,470.6c0-3.845-2.28-5.566-4.6-5.566h7.041c2.483,3.059,1.23,8.089-.785,11.883h-6.256C278.051,476.92,280.331,475.328,280.331,470.6Z" transform="translate(-251.973 -465.037)"/><path class="h" d="M300.651,465.037H322.2a4.2,4.2,0,0,1,4.2,4.2v3.482a4.2,4.2,0,0,1-4.2,4.2H299.866C301.881,473.126,303.134,468.1,300.651,465.037Z" transform="translate(-269.852 -465.037)"/><path class="d" d="M184.068,503.523a1.1,1.1,0,0,1,1.1-1.1h27.064a1.1,1.1,0,0,1,1.1,1.1h0a1.1,1.1,0,0,1-1.1,1.1H185.164a1.1,1.1,0,0,1-1.1-1.1Z" transform="translate(-184.068 -492.736)"/><path class="d" d="M184.068,466.133a1.1,1.1,0,0,1,1.1-1.1h27.064a1.1,1.1,0,0,1,1.1,1.1h0a1.1,1.1,0,0,1-1.1,1.1H185.164a1.1,1.1,0,0,1-1.1-1.1Z" transform="translate(-184.068 -465.037)"/></g></g><g transform="translate(19.079)"><g transform="translate(0)"><path class="a" d="M187.126,335.977H194.3v7.5h-4.88A14.137,14.137,0,0,0,187.126,335.977Z" transform="translate(-165.039 -333.785)"/><path class="b" d="M107.5,335.977h20.638a14.137,14.137,0,0,1,2.289,7.5H107.5Z" transform="translate(-106.052 -333.785)"/><g transform="translate(1.448 3.597)"><rect class="c" width="29.406" height="0.394"/><rect class="c" width="29.406" height="0.394" transform="translate(0 1.431)"/><rect class="c" width="29.406" height="0.393" transform="translate(0 2.863)"/><rect class="c" width="29.406" height="0.394" transform="translate(0 4.295)"/></g><path class="f" d="M198.175,333.086c0-3.846-2.28-5.565-4.6-5.565h7.041c2.482,3.058,1.23,8.089-.786,11.883h-6.255C195.895,339.4,198.175,337.812,198.175,333.086Z" transform="translate(-169.817 -327.521)"/><path class="g" d="M218.495,327.521h21.553a4.2,4.2,0,0,1,4.2,4.2V335.2a4.2,4.2,0,0,1-4.2,4.2H217.709C219.724,335.61,220.977,330.579,218.495,327.521Z" transform="translate(-187.696 -327.521)"/><path class="f" d="M101.913,366.005a1.1,1.1,0,0,1,1.1-1.1h27.063a1.1,1.1,0,0,1,1.1,1.1h0a1.1,1.1,0,0,1-1.1,1.1H103.009a1.1,1.1,0,0,1-1.1-1.1Z" transform="translate(-101.913 -355.219)"/><path class="f" d="M101.913,328.617a1.1,1.1,0,0,1,1.1-1.1h27.063a1.1,1.1,0,0,1,1.1,1.1h0a1.1,1.1,0,0,1-1.1,1.1H103.009a1.1,1.1,0,0,1-1.1-1.1Z" transform="translate(-101.913 -327.521)"/></g><g transform="translate(5.55 11.879)"><path class="a" d="M208.537,381.815h7.169v7.5h-4.88A14.132,14.132,0,0,0,208.537,381.815Z" transform="translate(-186.451 -379.621)"/><path class="b" d="M128.91,381.815h20.639a14.132,14.132,0,0,1,2.289,7.5H128.91Z" transform="translate(-127.462 -379.621)"/><g transform="translate(1.448 3.598)"><rect class="c" width="29.406" height="0.394"/><rect class="c" width="29.406" height="0.394" transform="translate(0 1.431)"/><rect class="c" width="29.406" height="0.393" transform="translate(0 2.863)"/><rect class="c" width="29.406" height="0.394" transform="translate(0 4.295)"/></g><path class="d" d="M219.586,378.918c0-3.845-2.28-5.566-4.6-5.566h7.041c2.482,3.059,1.23,8.09-.785,11.884h-6.256C217.306,385.236,219.586,383.643,219.586,378.918Z" transform="translate(-191.228 -373.352)"/><path class="h" d="M239.906,373.352h21.553a4.2,4.2,0,0,1,4.2,4.2v3.481a4.2,4.2,0,0,1-4.2,4.2H239.121C241.136,381.442,242.388,376.411,239.906,373.352Z" transform="translate(-209.108 -373.352)"/><path class="d" d="M123.325,411.841a1.1,1.1,0,0,1,1.1-1.1h27.063a1.1,1.1,0,0,1,1.1,1.1h0a1.1,1.1,0,0,1-1.1,1.1H124.421a1.1,1.1,0,0,1-1.1-1.1Z" transform="translate(-123.325 -401.053)"/><path class="d" d="M123.325,374.449a1.1,1.1,0,0,1,1.1-1.1h27.063a1.1,1.1,0,0,1,1.1,1.1h0a1.1,1.1,0,0,1-1.1,1.1H124.421a1.1,1.1,0,0,1-1.1-1.1Z" transform="translate(-123.325 -373.352)"/></g></g><g transform="translate(95.755)"><g transform="translate(34.9 23.763)"><path class="a" d="M644.874,427.657H637.7v7.5h4.88A14.143,14.143,0,0,1,644.874,427.657Z" transform="translate(-610.408 -425.466)"/><path class="b" d="M679.447,427.657H658.808a14.141,14.141,0,0,0-2.289,7.5h22.928Z" transform="translate(-624.342 -425.466)"/><g transform="translate(25.698 3.596)"><rect class="c" width="29.407" height="0.394"/><rect class="c" width="29.407" height="0.394" transform="translate(0 1.432)"/><rect class="c" width="29.407" height="0.393" transform="translate(0 2.865)"/><rect class="c" width="29.407" height="0.394" transform="translate(0 4.295)"/></g><path class="d" d="M630.257,424.768c0-3.845,2.28-5.565,4.6-5.565h-7.041c-2.482,3.058-1.23,8.088.785,11.882h6.256C632.537,431.085,630.257,429.494,630.257,424.768Z" transform="translate(-602.063 -419.203)"/><path class="e" d="M558.143,419.2H536.589a4.2,4.2,0,0,0-4.2,4.2v3.482a4.2,4.2,0,0,0,4.2,4.2h22.338C556.913,427.291,555.661,422.261,558.143,419.2Z" transform="translate(-532.389 -419.203)"/><path class="d" d="M666.961,457.686a1.1,1.1,0,0,0-1.1-1.1H638.8a1.1,1.1,0,0,0-1.1,1.1h0a1.1,1.1,0,0,0,1.1,1.1h27.064a1.1,1.1,0,0,0,1.1-1.1Z" transform="translate(-610.408 -446.9)"/><path class="d" d="M666.961,420.3a1.1,1.1,0,0,0-1.1-1.1H638.8a1.1,1.1,0,0,0-1.1,1.1h0a1.1,1.1,0,0,0,1.1,1.1h27.064a1.1,1.1,0,0,0,1.1-1.1Z" transform="translate(-610.408 -419.203)"/><g transform="translate(5.474 11.88)"><path class="a" d="M665.993,473.495h-7.169v7.5h4.88A14.135,14.135,0,0,1,665.993,473.495Z" transform="translate(-631.527 -471.303)"/><path class="b" d="M700.567,473.495H679.929a14.136,14.136,0,0,0-2.289,7.5h22.927Z" transform="translate(-645.463 -471.303)"/><g transform="translate(25.698 3.597)"><rect class="c" width="29.406" height="0.394"/><rect class="c" width="29.406" height="0.393" transform="translate(0 1.432)"/><rect class="c" width="29.406" height="0.394" transform="translate(0 2.864)"/><rect class="c" width="29.406" height="0.394" transform="translate(0 4.295)"/></g><path class="f" d="M651.378,470.6c0-3.845,2.28-5.566,4.6-5.566h-7.041c-2.482,3.059-1.229,8.089.785,11.883h6.255C653.658,476.92,651.378,475.328,651.378,470.6Z" transform="translate(-623.183 -465.037)"/><path class="g" d="M579.263,465.037H557.709a4.2,4.2,0,0,0-4.2,4.2v3.482a4.2,4.2,0,0,0,4.2,4.2h22.339C578.033,473.126,576.78,468.1,579.263,465.037Z" transform="translate(-553.509 -465.037)"/><path class="f" d="M688.08,503.523a1.1,1.1,0,0,0-1.1-1.1H659.921a1.1,1.1,0,0,0-1.1,1.1h0a1.1,1.1,0,0,0,1.1,1.1h27.063a1.1,1.1,0,0,0,1.1-1.1Z" transform="translate(-631.527 -492.736)"/><path class="f" d="M688.08,466.133a1.1,1.1,0,0,0-1.1-1.1H659.921a1.1,1.1,0,0,0-1.1,1.1h0a1.1,1.1,0,0,0,1.1,1.1h27.063a1.1,1.1,0,0,0,1.1-1.1Z" transform="translate(-631.527 -465.037)"/></g></g><g transform="translate(0 23.763)"><g transform="translate(5.55)"><path class="a" d="M531.638,427.657h-7.169v7.5h4.88A14.134,14.134,0,0,1,531.638,427.657Z" transform="translate(-497.172 -425.466)"/><path class="b" d="M566.211,427.657H545.572a14.134,14.134,0,0,0-2.289,7.5h22.928Z" transform="translate(-511.106 -425.466)"/><g transform="translate(25.698 3.596)"><rect class="c" width="29.406" height="0.394"/><rect class="c" width="29.406" height="0.394" transform="translate(0 1.432)"/><rect class="c" width="29.406" height="0.393" transform="translate(0 2.865)"/><rect class="c" width="29.406" height="0.394" transform="translate(0 4.295)"/></g><path class="f" d="M517.021,424.768c0-3.845,2.28-5.565,4.6-5.565H514.58c-2.483,3.058-1.23,8.088.785,11.882h6.256C519.3,431.085,517.021,429.494,517.021,424.768Z" transform="translate(-488.826 -419.203)"/><path class="g" d="M444.907,419.2H423.353a4.2,4.2,0,0,0-4.2,4.2v3.482a4.2,4.2,0,0,0,4.2,4.2h22.339C443.677,427.291,442.424,422.261,444.907,419.2Z" transform="translate(-419.153 -419.203)"/><path class="f" d="M553.725,457.686a1.1,1.1,0,0,0-1.1-1.1H525.565a1.1,1.1,0,0,0-1.1,1.1h0a1.1,1.1,0,0,0,1.1,1.1h27.063a1.1,1.1,0,0,0,1.1-1.1Z" transform="translate(-497.172 -446.9)"/><path class="f" d="M553.725,420.3a1.1,1.1,0,0,0-1.1-1.1H525.565a1.1,1.1,0,0,0-1.1,1.1h0a1.1,1.1,0,0,0,1.1,1.1h27.063a1.1,1.1,0,0,0,1.1-1.1Z" transform="translate(-497.172 -419.203)"/></g><g transform="translate(0 11.88)"><path class="a" d="M510.226,473.495h-7.169v7.5h4.88A14.128,14.128,0,0,1,510.226,473.495Z" transform="translate(-475.76 -471.303)"/><path class="b" d="M544.8,473.495H524.161a14.128,14.128,0,0,0-2.289,7.5H544.8Z" transform="translate(-489.695 -471.303)"/><g transform="translate(25.699 3.597)"><rect class="c" width="29.406" height="0.394"/><rect class="c" width="29.406" height="0.393" transform="translate(0 1.432)"/><rect class="c" width="29.406" height="0.394" transform="translate(0 2.864)"/><rect class="c" width="29.406" height="0.394" transform="translate(0 4.295)"/></g><path class="d" d="M495.61,470.6c0-3.845,2.28-5.566,4.6-5.566h-7.041c-2.483,3.059-1.23,8.089.785,11.883h6.256C497.89,476.92,495.61,475.328,495.61,470.6Z" transform="translate(-467.415 -465.037)"/><path class="h" d="M423.5,465.037H401.942a4.2,4.2,0,0,0-4.2,4.2v3.482a4.2,4.2,0,0,0,4.2,4.2H424.28C422.265,473.126,421.012,468.1,423.5,465.037Z" transform="translate(-397.741 -465.037)"/><path class="d" d="M532.313,503.523a1.1,1.1,0,0,0-1.1-1.1H504.154a1.1,1.1,0,0,0-1.1,1.1h0a1.1,1.1,0,0,0,1.1,1.1h27.064a1.1,1.1,0,0,0,1.1-1.1Z" transform="translate(-475.76 -492.736)"/><path class="d" d="M532.313,466.133a1.1,1.1,0,0,0-1.1-1.1H504.154a1.1,1.1,0,0,0-1.1,1.1h0a1.1,1.1,0,0,0,1.1,1.1h27.064a1.1,1.1,0,0,0,1.1-1.1Z" transform="translate(-475.76 -465.037)"/></g></g><g transform="translate(15.745)"><g transform="translate(5.55)"><path class="a" d="M592.383,335.977h-7.169v7.5h4.88A14.135,14.135,0,0,1,592.383,335.977Z" transform="translate(-557.917 -333.785)"/><path class="b" d="M626.957,335.977H606.318a14.136,14.136,0,0,0-2.289,7.5h22.928Z" transform="translate(-571.852 -333.785)"/><g transform="translate(25.699 3.597)"><rect class="c" width="29.406" height="0.394"/><rect class="c" width="29.406" height="0.394" transform="translate(0 1.431)"/><rect class="c" width="29.406" height="0.393" transform="translate(0 2.863)"/><rect class="c" width="29.406" height="0.394" transform="translate(0 4.295)"/></g><path class="f" d="M577.767,333.086c0-3.846,2.28-5.565,4.6-5.565h-7.041c-2.482,3.058-1.23,8.089.785,11.883h6.256C580.047,339.4,577.767,337.812,577.767,333.086Z" transform="translate(-549.572 -327.521)"/><path class="g" d="M505.651,327.521H484.1a4.2,4.2,0,0,0-4.2,4.2V335.2a4.2,4.2,0,0,0,4.2,4.2h22.339C504.422,335.61,503.169,330.579,505.651,327.521Z" transform="translate(-479.897 -327.521)"/><path class="f" d="M614.47,366.005a1.1,1.1,0,0,0-1.1-1.1H586.31a1.1,1.1,0,0,0-1.1,1.1h0a1.1,1.1,0,0,0,1.1,1.1h27.064a1.1,1.1,0,0,0,1.1-1.1Z" transform="translate(-557.917 -355.219)"/><path class="f" d="M614.47,328.617a1.1,1.1,0,0,0-1.1-1.1H586.31a1.1,1.1,0,0,0-1.1,1.1h0a1.1,1.1,0,0,0,1.1,1.1h27.064a1.1,1.1,0,0,0,1.1-1.1Z" transform="translate(-557.917 -327.521)"/></g><g transform="translate(0 11.879)"><path class="a" d="M570.974,381.815H563.8v7.5h4.88A14.127,14.127,0,0,1,570.974,381.815Z" transform="translate(-536.507 -379.621)"/><path class="b" d="M605.547,381.815H584.908a14.125,14.125,0,0,0-2.289,7.5h22.927Z" transform="translate(-550.441 -379.621)"/><g transform="translate(25.699 3.598)"><rect class="c" width="29.406" height="0.394"/><rect class="c" width="29.406" height="0.394" transform="translate(0 1.431)"/><rect class="c" width="29.406" height="0.393" transform="translate(0 2.863)"/><rect class="c" width="29.406" height="0.394" transform="translate(0 4.295)"/></g><path class="d" d="M556.356,378.918c0-3.845,2.28-5.566,4.6-5.566h-7.041c-2.483,3.059-1.23,8.09.785,11.884h6.256C558.635,385.236,556.356,383.643,556.356,378.918Z" transform="translate(-528.16 -373.352)"/><path class="h" d="M484.24,373.352H462.687a4.2,4.2,0,0,0-4.2,4.2v3.481a4.2,4.2,0,0,0,4.2,4.2h22.339C483.01,381.442,481.758,376.411,484.24,373.352Z" transform="translate(-458.486 -373.352)"/><path class="d" d="M593.06,411.841a1.1,1.1,0,0,0-1.1-1.1H564.9a1.1,1.1,0,0,0-1.1,1.1h0a1.1,1.1,0,0,0,1.1,1.1h27.063a1.1,1.1,0,0,0,1.1-1.1Z" transform="translate(-536.507 -401.053)"/><path class="d" d="M593.06,374.449a1.1,1.1,0,0,0-1.1-1.1H564.9a1.1,1.1,0,0,0-1.1,1.1h0a1.1,1.1,0,0,0,1.1,1.1h27.063a1.1,1.1,0,0,0,1.1-1.1Z" transform="translate(-536.507 -373.352)"/></g></g></g></g><g transform="translate(49.4)"><g transform="translate(14.16)"><path class="i" d="M280.494,241.932s-4.106-15.019,9.971-21.633,41.41-3.712,37.918,21.463c0,0,2.122-4.027,4.156-.253,2.319,4.306-4.819,12.922-5.832,7.552,0,0-2.143,12.162-21.833,12.718s-22.895-12.8-22.895-12.8-1.022,4.744-5.585,1.965C272.486,248.563,271.477,235.156,280.494,241.932Z" transform="translate(-273.526 -204.735)"/><g transform="translate(19.153 36.252)"><path class="j" d="M352.363,311.6a2.471,2.471,0,1,1-2.48-2.462A2.47,2.47,0,0,1,352.363,311.6Z" transform="translate(-347.422 -309.055)"/><path class="j" d="M447.449,311.269a2.47,2.47,0,1,1-2.479-2.461A2.471,2.471,0,0,1,447.449,311.269Z" transform="translate(-417.863 -308.808)"/></g><path class="k" d="M329.777,336.276c1.276.12,2.291-2.454-1.717-4S323.7,335.7,329.777,336.276Z" transform="translate(-311.745 -289.723)"/><path class="k" d="M455.227,337.612c-1.273.128-2.307-2.44,1.692-4.011S461.306,337,455.227,337.612Z" transform="translate(-407.288 -290.696)"/><path class="l" d="M448.385,293.1s-1.989-4.184-5.782-1.346l-.856-2.266s4.64-2.935,8.089,2.276Z" transform="translate(-398.146 -257.63)"/><path class="l" d="M342.762,293.449s1.958-4.2,5.773-1.387l.838-2.272s-4.662-2.9-8.074,2.332Z" transform="translate(-323.733 -257.873)"/><path class="l" d="M288.746,202.731s1.428,8.251,4.078,7.42.48-9.123.48-9.123,3.689.066,3.982-3.134.281-4.982,7.468-7.567,10.876,4.292,14.926,4.324,4.761-4.3,9.846-4.148,9.552,5.774,8.764,14.438a71.5,71.5,0,0,0,2.791-11.205c1.287-7.171-.615-21.529-3.3-22.046s-2.042,6.449-2.042,6.449-1.238-8.435-3.992-7.761-.588,6.406-.588,6.406-4.517-8.933-7.288-7.664.933,6,.933,6-6.538-7.688-7.713-5.913,1.083,6.1,1.083,6.1-9.9-2.621-17.535,1.166-8.693,8.276-8.693,8.276-1.011-4.132-2.329-3.5.875,4.581.875,4.581-3.571-.788-3.752,1,3.677,1.528,3.677,1.528S286.106,193.645,288.746,202.731Z" transform="translate(-283.307 -168.941)"/><path class="m" d="M388.453,356.53a4.454,4.454,0,0,0,5.873,1.4A10.175,10.175,0,0,0,388.453,356.53Z" transform="translate(-358.665 -307.88)"/><path class="n" d="M383.618,347.407a8.394,8.394,0,0,0,1.253,2.393,10.175,10.175,0,0,1,5.873,1.4,13.523,13.523,0,0,0,3.7-2.674S388.467,350.646,383.618,347.407Z" transform="translate(-355.083 -301.15)"/></g><g transform="translate(0 36.734)"><g transform="translate(6.774 48.639)"><path class="i" d="M263.158,515.287l-13.748-3.612a5.87,5.87,0,0,1-4.184-7.169l.476-1.808a5.869,5.869,0,0,1,7.168-4.185l13.466,3.54C267.091,506.846,266.446,511.778,263.158,515.287Z" transform="translate(-245.031 -498.319)"/><path class="o" d="M318.144,512.725l2.083.547c.735,4.685-.323,9.75-3.425,13.169l-1.835-.483C318.255,522.449,318.9,517.518,318.144,512.725Z" transform="translate(-296.84 -508.991)"/><path class="b" d="M325.47,514.836l10.137,2.664a5.868,5.868,0,0,1,4.184,7.168l-.475,1.807a5.868,5.868,0,0,1-7.167,4.185l-10.1-2.655C325.147,524.586,326.2,519.521,325.47,514.836Z" transform="translate(-302.084 -510.555)"/><path class="b" d="M356.094,538.033c4.472,1.176,7.025-2.028,8.2-6.5s.528-8.517-3.944-9.692-8.374,1.674-9.548,6.145S351.622,536.858,356.094,538.033Z" transform="translate(-323.141 -515.548)"/><path class="f" d="M351.377,536.794c4.471,1.175,7.024-2.029,8.2-6.5s.528-8.516-3.943-9.691-8.373,1.674-9.549,6.146S346.905,535.619,351.377,536.794Z" transform="translate(-319.646 -514.63)"/><path class="j" d="M342.467,538.3a.731.731,0,0,0,.892-.521l1.58-6.014a.731.731,0,0,0-.52-.892h0a.73.73,0,0,0-.893.521l-1.58,6.013a.732.732,0,0,0,.521.893Z" transform="translate(-316.809 -522.419)"/><path class="j" d="M353.769,541.272a.73.73,0,0,0,.892-.52l1.581-6.014a.731.731,0,0,0-.521-.892h0a.731.731,0,0,0-.892.521l-1.581,6.013a.73.73,0,0,0,.522.892Z" transform="translate(-325.181 -524.619)"/><path class="p" d="M249.485,511.694l-.076-.019a5.87,5.87,0,0,1-4.184-7.169l.476-1.808a5.869,5.869,0,0,1,7.168-4.185l.075.021a18.074,18.074,0,0,0-3.459,13.16Z" transform="translate(-245.031 -498.319)"/></g><path class="q" d="M244.939,509.938l-.838,3.1s23.949,5.854,27.463,6.7,9.764,3.506,8.259,9.87c0,0,2.154,0,3.942-2.657s1.021-7.9,1.021-7.9Z" transform="translate(-237.568 -458.288)"/><g transform="translate(5.483)"><path class="b" d="M327.664,310.7,291.9,319.365a1.512,1.512,0,0,0-1.117,1.388,1.512,1.512,0,0,0-1.117-1.388L253.9,310.7a.85.85,0,0,0-1.117.846v48a1.512,1.512,0,0,0,1.117,1.388l35.766,8.668a1.16,1.16,0,0,1,2.234,0l35.766-8.668a1.512,1.512,0,0,0,1.118-1.388v-48A.851.851,0,0,0,327.664,310.7Z" transform="translate(-249.48 -310.665)"/><path class="r" d="M451.339,365.584a1.513,1.513,0,0,1-1.117,1.388l-35.766,8.668a.85.85,0,0,1-1.117-.847v-48a1.512,1.512,0,0,1,1.117-1.388l35.766-8.668a.85.85,0,0,1,1.117.847Z" transform="translate(-368.423 -315.137)"/><path class="r" d="M240.05,365.584a1.512,1.512,0,0,0,1.117,1.388l35.766,8.668a.851.851,0,0,0,1.118-.847v-48a1.512,1.512,0,0,0-1.118-1.388l-35.766-8.668a.85.85,0,0,0-1.117.847Z" transform="translate(-240.05 -315.137)"/><path class="s" d="M4.31,0H6.639a4.311,4.311,0,0,1,4.311,4.311V45.927a4.312,4.312,0,0,1-4.312,4.312H4.312A4.312,4.312,0,0,1,0,45.927V4.31A4.31,4.31,0,0,1,4.31,0Z" transform="translate(35.826 10.265)"/><path class="r" d="M3.63,0h0A3.632,3.632,0,0,1,7.262,3.632V21.06a3.632,3.632,0,0,1-3.632,3.632h0A3.631,3.631,0,0,1,0,21.061V3.63A3.63,3.63,0,0,1,3.63,0Z" transform="translate(37.669 23.038)"/><g transform="translate(35.826 16.278)"><rect class="r" width="10.949" height="2.09"/><rect class="r" width="10.949" height="2.09" transform="translate(0 36.122)"/></g></g><g transform="translate(44.271 50.152)"><path class="i" d="M470.363,521.4l13.661-3.932a5.869,5.869,0,0,0,4.017-7.263l-.517-1.8a5.868,5.868,0,0,0-7.263-4.016l-13.38,3.851C466.235,513.05,466.994,517.966,470.363,521.4Z" transform="translate(-446.72 -504.16)"/><path class="o" d="M461.1,519.908l-2.07.6c-.625,4.7.551,9.739,3.731,13.086l1.823-.524C461.214,529.632,460.454,524.717,461.1,519.908Z" transform="translate(-440.94 -515.826)"/><path class="b" d="M418.566,522.2l-10.072,2.9a5.868,5.868,0,0,0-4.016,7.263l.517,1.8a5.869,5.869,0,0,0,7.263,4.017l10.039-2.89C419.117,531.944,417.941,526.906,418.566,522.2Z" transform="translate(-400.477 -517.528)"/><path class="b" d="M398.648,546.4c-4.443,1.279-7.07-1.865-8.349-6.307s-.725-8.5,3.718-9.781,8.41,1.479,9.689,5.922S403.091,545.118,398.648,546.4Z" transform="translate(-389.699 -523.298)"/><path class="f" d="M403.337,545.048c-4.443,1.278-7.069-1.865-8.348-6.308s-.725-8.5,3.717-9.781,8.41,1.48,9.689,5.922S407.78,543.769,403.337,545.048Z" transform="translate(-393.173 -522.299)"/><path class="j" d="M444.187,545.985a.731.731,0,0,1-.9-.5l-1.72-5.975a.731.731,0,0,1,.5-.9h0a.73.73,0,0,1,.9.5l1.72,5.975a.731.731,0,0,1-.5.9Z" transform="translate(-428.099 -529.656)"/><path class="j" d="M432.957,549.217a.731.731,0,0,1-.9-.5l-1.72-5.976a.73.73,0,0,1,.5-.9h0a.729.729,0,0,1,.9.5l1.72,5.975a.731.731,0,0,1-.5.9Z" transform="translate(-419.78 -532.051)"/><path class="p" d="M522.574,517.488l.075-.022a5.869,5.869,0,0,0,4.017-7.263l-.517-1.8a5.868,5.868,0,0,0-7.263-4.016l-.075.021a18.074,18.074,0,0,1,3.764,13.076Z" transform="translate(-485.345 -504.16)"/></g><g transform="translate(0 19.422)"><path class="i" d="M544.751,387.222c-2.311-2.161-7.455-1.882-8.258-.8s3.6,2.906,3.6,2.906-4.587-.675-4.973.915,4.426,3.141,4.426,3.141-4.058-.7-4.835,1.007,4.4,3.493,4.4,3.493-3.926.1-4.153,1.26c-.611,3.119,9.7,4.736,11.156-1.514C546.984,393.887,547.063,389.384,544.751,387.222Z" transform="translate(-452.793 -385.599)"/><path class="i" d="M230.861,394.394c-.777-1.709-4.834-1.007-4.834-1.007s4.813-1.55,4.427-3.141-4.973-.915-4.973-.915,4.4-1.82,3.6-2.906-5.947-1.365-8.258.8-2.233,6.665-1.36,10.411c1.456,6.25,11.767,4.634,11.156,1.514-.227-1.158-4.154-1.26-4.154-1.26S231.638,396.1,230.861,394.394Z" transform="translate(-218.894 -385.599)"/></g></g></g></g><g transform="translate(37.584 84.908)"><g transform="translate(0 2.515)"><path class="r" d="M136.7,154.833s.218-20.908-12.751-29.654-22.582,1.98-21.5,10.255c.82,6.248,5.878,11.585,17.565,9.853S136.7,154.833,136.7,154.833Z" transform="translate(-92.455 -114.842)"/><path class="d" d="M156.509,246.313s-10.352-5.14-17.4-1.047-3.52,12.066.968,12.566,4.855-1.475,7.957-5.805A16.7,16.7,0,0,1,156.509,246.313Z" transform="translate(-116.709 -205.045)"/><path class="f" d="M238.733,135.266s-5.81-10.117-.991-17.028,11.833-2.373,9.737,3.491C245.875,126.219,240.642,124.813,238.733,135.266Z" transform="translate(-191.321 -109.532)"/><path class="b" d="M98.015,232.76c-1.245-2.5-1.269-2.529-3.774-3.773,2.5-1.245,2.529-1.269,3.773-3.774,1.245,2.505,1.269,2.529,3.774,3.774C99.284,230.231,99.259,230.256,98.015,232.76Z" transform="translate(-86.431 -191.362)"/><path class="d" d="M203.774,102.158c-1.245-2.505-1.269-2.529-3.774-3.774,2.505-1.244,2.529-1.269,3.774-3.774,1.245,2.505,1.269,2.529,3.774,3.774C205.043,99.628,205.018,99.653,203.774,102.158Z" transform="translate(-164.778 -94.61)"/><path class="f" d="M66.623,284.83c-.829-1.669-.845-1.685-2.514-2.514,1.669-.829,1.685-.846,2.514-2.514.83,1.669.846,1.685,2.515,2.514C67.469,283.145,67.453,283.16,66.623,284.83Z" transform="translate(-64.109 -231.801)"/><path class="r" d="M306.17,117.247c-.829-1.669-.846-1.685-2.514-2.515,1.669-.829,1.685-.845,2.514-2.514.83,1.669.845,1.685,2.515,2.514C307.015,115.562,307,115.578,306.17,117.247Z" transform="translate(-241.567 -107.654)"/><path class="b" d="M278.286,180.292c-.909-1.829-.927-1.846-2.755-2.755,1.828-.908,1.846-.926,2.755-2.755.908,1.829.926,1.846,2.755,2.755C279.212,178.446,279.194,178.463,278.286,180.292Z" transform="translate(-220.732 -154.002)"/></g><g transform="translate(111.03)"><path class="d" d="M574.727,154.833s-.218-20.908,12.75-29.654,22.582,1.98,21.5,10.255c-.82,6.248-5.878,11.585-17.564,9.853S574.727,154.833,574.727,154.833Z" transform="translate(-553.409 -112.327)"/><path class="f" d="M591.891,246.313s10.352-5.14,17.4-1.047,3.52,12.066-.968,12.566-4.855-1.475-7.957-5.805A16.7,16.7,0,0,0,591.891,246.313Z" transform="translate(-566.124 -202.53)"/><path class="r" d="M536.434,135.266s5.81-10.117.991-17.028-11.834-2.373-9.738,3.491C529.292,126.219,534.525,124.813,536.434,135.266Z" transform="translate(-518.279 -107.018)"/><path class="b" d="M689.966,232.76c1.245-2.5,1.268-2.529,3.774-3.773-2.506-1.245-2.529-1.269-3.774-3.774-1.245,2.505-1.269,2.529-3.774,3.774C688.7,230.231,688.721,230.256,689.966,232.76Z" transform="translate(-635.982 -188.847)"/><path class="f" d="M584.207,102.158c1.245-2.505,1.269-2.529,3.774-3.774-2.5-1.244-2.529-1.269-3.774-3.774-1.245,2.505-1.269,2.529-3.773,3.774C582.939,99.628,582.963,99.653,584.207,102.158Z" transform="translate(-557.636 -92.095)"/><path class="d" d="M728.557,284.83c.829-1.669.845-1.685,2.514-2.514-1.669-.829-1.685-.846-2.514-2.514-.829,1.669-.846,1.685-2.514,2.514C727.711,283.145,727.728,283.16,728.557,284.83Z" transform="translate(-665.505 -229.286)"/><path class="d" d="M514.933,89.937c.829-1.669.845-1.685,2.514-2.515-1.669-.829-1.685-.845-2.514-2.514-.829,1.669-.846,1.685-2.514,2.514C514.088,88.252,514.1,88.268,514.933,89.937Z" transform="translate(-507.25 -84.908)"/><path class="b" d="M495.232,153.448c.909-1.829.927-1.846,2.755-2.755-1.828-.909-1.846-.926-2.755-2.755-.908,1.829-.926,1.846-2.755,2.755C494.306,151.6,494.324,151.619,495.232,153.448Z" transform="translate(-492.477 -131.601)"/></g></g></g></svg>