<svg xmlns="http://www.w3.org/2000/svg" width="149.978" height="162.702" viewBox="0 0 149.978 162.702"><defs><style>.a{fill:#f5f5f5;}.b{fill:#e0e0e0;}.c{fill:#27debf;}.d{opacity:0.1;}.e,.f{fill:#fff;}.f{opacity:0.4;}.g{fill:#ebebeb;}.h{fill:#fafafa;}.i{fill:#37474f;}.j{fill:#455a64;}.k{fill:#263238;}.l{opacity:0.15;}.m{fill:#ffa8a7;}.n{fill:#f28f8f;}.o{fill:#b16668;}.p{fill:#9a4a4d;}</style></defs><g transform="translate(-44.305 -26.178)"><path class="a" d="M66.27,323.815c29.285,15.434,76.766,15.435,106.05,0s29.285-40.458,0-55.893-76.766-15.434-106.051,0S36.984,308.381,66.27,323.815Z" transform="translate(0 -146.512)"/><path class="b" d="M69.621,323.438l1.359.776a1.745,1.745,0,0,0,1.575,0l62.81-36.261a.478.478,0,0,0,0-.906l-1.35-.77a1.745,1.745,0,0,0-1.575,0L69.62,322.531A.478.478,0,0,0,69.621,323.438Z" transform="translate(-15.906 -165.443)"/><ellipse class="b" cx="19.168" cy="10.509" rx="19.168" ry="10.509" transform="translate(125.226 150.041)"/><ellipse class="b" cx="14.788" cy="8.108" rx="14.788" ry="8.108" transform="translate(151.751 126.246)"/><g transform="translate(173.517 114.375)"><g transform="translate(0.254)"><path class="c" d="M400.509,280.671a16.267,16.267,0,0,1,3.172-8.153c1.9-2.434,4.906-4.233,7.067-3.523,2.013.661,1.827,3.293-.584,5.065s-6.04,4-7.073,7.029l-2.2,3.723Z" transform="translate(-400.508 -268.838)"/><path class="d" d="M400.509,280.671a16.267,16.267,0,0,1,3.172-8.153c1.9-2.434,4.906-4.233,7.067-3.523,2.013.661,1.827,3.293-.584,5.065s-6.04,4-7.073,7.029l-2.2,3.723Z" transform="translate(-400.508 -268.838)"/></g><g transform="translate(0 1.26)"><path class="e" d="M399.957,285.419a.136.136,0,0,0,.121-.111c1.167-6.353,6.233-11.567,9.288-12.742a.136.136,0,0,0,.078-.175.135.135,0,0,0-.176-.078c-3.113,1.2-8.273,6.5-9.457,12.946a.135.135,0,0,0,.109.158A.143.143,0,0,0,399.957,285.419Z" transform="translate(-399.809 -272.304)"/></g><g transform="translate(0.527 8.011)"><g transform="translate(0.154)"><path class="c" d="M402.144,301.289a9.32,9.32,0,0,1,3.585-4.232c2.262-1.6,5.14-2.36,5.791-3.593.782-1.481-.475-2.857-2.815-2.538s-6.421,3.565-7.021,8.386Z" transform="translate(-401.683 -290.879)"/></g><g transform="translate(0 1.277)"><path class="e" d="M401.408,302.436a.136.136,0,0,0,.116-.091c1.878-5.453,6-7.409,7.914-7.681a.136.136,0,0,0,.115-.153.134.134,0,0,0-.153-.115c-2.119.3-6.215,2.3-8.133,7.862a.136.136,0,0,0,.084.172A.131.131,0,0,0,401.408,302.436Z" transform="translate(-401.26 -294.394)"/></g></g></g><g transform="translate(54.333 26.178)"><path class="c" d="M72.969,157.08l-.276-.16a1.766,1.766,0,0,1-.8-1.384V62.4a1.766,1.766,0,0,1,.8-1.384l60.014-34.646a1.768,1.768,0,0,1,1.6,0l.276.159a1.766,1.766,0,0,1,.8,1.384v93.139a1.766,1.766,0,0,1-.8,1.384L74.567,157.08A1.766,1.766,0,0,1,72.969,157.08Z" transform="translate(-71.894 -26.178)"/><path class="f" d="M135.785,27.783c-.055-.414-.389-.565-.791-.334L74.979,62.1a1.643,1.643,0,0,0-.565.594l-1.87-1.079a1.626,1.626,0,0,1,.565-.6L133.12,26.369a1.765,1.765,0,0,1,1.6,0l.276.159A1.79,1.79,0,0,1,135.785,27.783Z" transform="translate(-72.308 -26.177)"/><path class="d" d="M74.435,219.2a1.774,1.774,0,0,1-1.46-.063l-.281-.159a1.769,1.769,0,0,1-.795-1.385V124.456a1.6,1.6,0,0,1,.234-.787L74,124.748a1.673,1.673,0,0,0-.234.787v93.141C73.769,219.133,74.058,219.346,74.435,219.2Z" transform="translate(-71.897 -88.235)"/></g><g transform="translate(62.209 34.11)"><g transform="translate(0 37.94)"><path class="g" d="M94.638,203.732l-.276-.159a1.766,1.766,0,0,1-.8-1.384V185.448a1.766,1.766,0,0,1,.8-1.384l54.485-31.486a1.765,1.765,0,0,1,1.6,0l.276.159a1.766,1.766,0,0,1,.8,1.384v16.741a1.765,1.765,0,0,1-.8,1.384L96.236,203.732A1.766,1.766,0,0,1,94.638,203.732Z" transform="translate(-93.563 -152.387)"/><path class="h" d="M151.925,153.993c-.055-.414-.389-.565-.791-.335l-54.487,31.49a1.649,1.649,0,0,0-.565.594l-1.87-1.079a1.626,1.626,0,0,1,.565-.6l54.483-31.486a1.764,1.764,0,0,1,1.6,0l.276.159A1.79,1.79,0,0,1,151.925,153.993Z" transform="translate(-93.976 -152.387)"/><path class="b" d="M96.1,260.319a1.773,1.773,0,0,1-1.46-.063l-.28-.159a1.768,1.768,0,0,1-.795-1.385V241.974a1.6,1.6,0,0,1,.234-.787l1.87,1.079a1.668,1.668,0,0,0-.234.787V259.8C95.438,260.252,95.727,260.466,96.1,260.319Z" transform="translate(-93.566 -208.912)"/><g transform="translate(4.739 30.854)"><path class="c" d="M112.24,238.059c3.108-1.794,5.627-.4,5.626,3.118a12.143,12.143,0,0,1-5.633,9.551c-3.111,1.758-5.633.361-5.631-3.119A12.266,12.266,0,0,1,112.24,238.059Z" transform="translate(-106.602 -237.277)"/></g></g><g transform="translate(0 60.627)"><path class="g" d="M94.638,266.15l-.276-.159a1.766,1.766,0,0,1-.8-1.384V247.866a1.766,1.766,0,0,1,.8-1.384L148.847,215a1.765,1.765,0,0,1,1.6,0l.276.159a1.766,1.766,0,0,1,.8,1.384V233.28a1.766,1.766,0,0,1-.8,1.384L96.236,266.15A1.765,1.765,0,0,1,94.638,266.15Z" transform="translate(-93.563 -214.805)"/><path class="h" d="M151.925,216.411c-.055-.414-.389-.565-.791-.335l-54.487,31.49a1.649,1.649,0,0,0-.565.594l-1.87-1.079a1.626,1.626,0,0,1,.565-.6L149.26,215a1.764,1.764,0,0,1,1.6,0l.276.159A1.79,1.79,0,0,1,151.925,216.411Z" transform="translate(-93.976 -214.805)"/><path class="b" d="M96.1,322.737a1.774,1.774,0,0,1-1.46-.063l-.28-.159a1.768,1.768,0,0,1-.795-1.385V304.392a1.6,1.6,0,0,1,.234-.787l1.87,1.08a1.668,1.668,0,0,0-.234.787v16.743C95.438,322.67,95.727,322.884,96.1,322.737Z" transform="translate(-93.566 -271.33)"/><g transform="translate(4.739 30.854)"><path class="c" d="M112.24,300.478c3.108-1.794,5.627-.4,5.626,3.118a12.143,12.143,0,0,1-5.633,9.551c-3.111,1.758-5.633.361-5.631-3.119A12.266,12.266,0,0,1,112.24,300.478Z" transform="translate(-106.602 -299.695)"/></g></g><path class="g" d="M94.638,99.347l-.276-.159a1.766,1.766,0,0,1-.8-1.384V81.063a1.766,1.766,0,0,1,.8-1.384l54.485-31.486a1.765,1.765,0,0,1,1.6,0l.276.159a1.766,1.766,0,0,1,.8,1.384V66.477a1.766,1.766,0,0,1-.8,1.384L96.236,99.347A1.766,1.766,0,0,1,94.638,99.347Z" transform="translate(-93.563 -48.002)"/><path class="h" d="M151.925,49.608c-.055-.414-.389-.565-.791-.335L96.647,80.763a1.649,1.649,0,0,0-.565.594l-1.87-1.079a1.626,1.626,0,0,1,.565-.6L149.26,48.194a1.764,1.764,0,0,1,1.6,0l.276.159A1.79,1.79,0,0,1,151.925,49.608Z" transform="translate(-93.976 -48.002)"/><path class="b" d="M96.1,155.934a1.774,1.774,0,0,1-1.46-.062l-.28-.159a1.768,1.768,0,0,1-.795-1.385V137.589a1.6,1.6,0,0,1,.234-.787l1.87,1.079a1.669,1.669,0,0,0-.234.787v16.743C95.438,155.867,95.727,156.081,96.1,155.934Z" transform="translate(-93.566 -104.527)"/><g transform="translate(4.739 30.854)"><path class="c" d="M112.24,133.675c3.108-1.794,5.627-.4,5.626,3.118a12.142,12.142,0,0,1-5.633,9.551c-3.111,1.758-5.633.361-5.631-3.119A12.266,12.266,0,0,1,112.24,133.675Z" transform="translate(-106.602 -132.892)"/></g><g transform="translate(3.829 21.255)"><path class="i" d="M105.174,157.825l-.276-.159a1.766,1.766,0,0,1-.8-1.384V139.541a1.766,1.766,0,0,1,.8-1.384l54.485-31.486a1.766,1.766,0,0,1,1.6,0l.276.159a1.767,1.767,0,0,1,.8,1.384v16.741a1.766,1.766,0,0,1-.8,1.384l-54.485,31.486A1.765,1.765,0,0,1,105.174,157.825Z" transform="translate(-104.099 -106.48)"/><path class="j" d="M162.461,108.086c-.055-.414-.389-.565-.791-.335l-54.487,31.49a1.648,1.648,0,0,0-.565.594l-1.87-1.079a1.626,1.626,0,0,1,.565-.6L159.8,106.672a1.765,1.765,0,0,1,1.6,0l.276.159A1.79,1.79,0,0,1,162.461,108.086Z" transform="translate(-104.512 -106.48)"/><path class="k" d="M106.64,214.412a1.775,1.775,0,0,1-1.46-.062l-.28-.159a1.768,1.768,0,0,1-.795-1.385V196.067a1.6,1.6,0,0,1,.234-.787l1.87,1.079a1.673,1.673,0,0,0-.234.787v16.743C105.974,214.345,106.263,214.559,106.64,214.412Z" transform="translate(-104.102 -163.005)"/><g transform="translate(4.739 27.78)"><path class="a" d="M122.776,192.152c3.108-1.794,5.627-.4,5.626,3.118a12.143,12.143,0,0,1-5.633,9.551c-3.111,1.758-5.633.361-5.631-3.119A12.267,12.267,0,0,1,122.776,192.152Z" transform="translate(-117.138 -188.295)"/><g transform="translate(2.364)"><path class="c" d="M127.027,196.883a.615.615,0,0,1-.69.034l-2.472-1.87c-.33-.249-.289-.939.093-1.54s.959-.886,1.288-.636l1.722,1.3,4.784-10.282c.3-.642.871-1.072,1.276-.963s.494.72.2,1.361l-5.461,11.738a1.981,1.981,0,0,1-.7.833Z" transform="translate(-123.642 -182.911)"/></g></g></g></g><g transform="translate(100.953 67.624)"><g transform="translate(0 6.03)"><path class="c" d="M223.19,164.979l-1.58-.912v0a2.024,2.024,0,0,0-1.971.269l-.986-.569h0c-1.2-.722-2.859.789-3.232,1.152l-.426-.246h0c-1.268-.765-3.573,1.282-3.573,1.282v-7.615l1-.485-1.594-.921,0,0-.011-.006h0a1.432,1.432,0,0,0-1.42.148h0a4.483,4.483,0,0,0-2.027,3.512v17.653a6.022,6.022,0,0,0-4.366-1.5,4.381,4.381,0,0,0-2.639,1.823c-.671,1.182.436,1.924,1.861,3.554s2.659,3.561,3.946,4.761a6.954,6.954,0,0,0,2.219,1.513v2.3l1.566.9,10.348-7.782v-2.3s1.479-5.894,1.951-8.357c.455-2.372.873-6.154.092-8.118l.845-.058Z" transform="translate(-200.161 -156.801)"/><path class="f" d="M223.19,164.979l-1.58-.912v0a2.024,2.024,0,0,0-1.971.269l-.986-.569h0c-1.2-.722-2.859.789-3.232,1.152l-.426-.246h0c-1.268-.765-3.573,1.282-3.573,1.282v-7.615l1-.485-1.594-.921,0,0-.011-.006h0a1.432,1.432,0,0,0-1.42.148h0a4.483,4.483,0,0,0-2.027,3.512v17.653a6.022,6.022,0,0,0-4.366-1.5,4.381,4.381,0,0,0-2.639,1.823c-.671,1.182.436,1.924,1.861,3.554s2.659,3.561,3.946,4.761a6.954,6.954,0,0,0,2.219,1.513v2.3l1.566.9,10.348-7.782v-2.3s1.479-5.894,1.951-8.357c.455-2.372.873-6.154.092-8.118l.845-.058Z" transform="translate(-200.161 -156.801)"/><g transform="translate(0.001 3.788)"><path class="c" d="M211.519,223.742l-7.828-4.519-3.429-1.979c-.436,1.066.622,1.814,1.962,3.347,1.412,1.615,2.659,3.561,3.946,4.761a6.954,6.954,0,0,0,2.219,1.513v2.3l1.566.9,2.286-1.719C211.945,226.394,211.519,223.742,211.519,223.742Z" transform="translate(-200.163 -199.063)"/><path class="c" d="M221.553,168.128l-1.566-.9V185.74l1.566.04Z" transform="translate(-212.782 -167.224)"/><path class="c" d="M255.324,178.893l1.213-.9c-.026-.079-.051-.161-.08-.236l.44-.03-.973-.044-1.626-.9a3.516,3.516,0,0,0-.547.273l.508.3Z" transform="translate(-234.274 -173.314)"/><path class="c" d="M243.636,178.66l1.14-.867-1.571-.95a6.672,6.672,0,0,0-1.059.837l1.091.631Z" transform="translate(-226.887 -173.347)"/><path class="c" d="M236.988,179.994l-1.553-.909.006-.015v1.967l1.811-.665Z" transform="translate(-222.615 -174.764)"/></g><g class="l" transform="translate(0.001 3.788)"><path d="M211.519,223.742l-7.828-4.519-3.429-1.979c-.436,1.066.622,1.814,1.962,3.347,1.412,1.615,2.659,3.561,3.946,4.761a6.954,6.954,0,0,0,2.219,1.513v2.3l1.566.9,2.286-1.719C211.945,226.394,211.519,223.742,211.519,223.742Z" transform="translate(-200.163 -199.063)"/><path d="M221.553,168.128l-1.566-.9V185.74l1.566.04Z" transform="translate(-212.782 -167.224)"/><path d="M255.324,178.893l1.213-.9c-.026-.079-.051-.161-.08-.236l.44-.03-.973-.044-1.626-.9a3.516,3.516,0,0,0-.547.273l.508.3Z" transform="translate(-234.274 -173.314)"/><path d="M243.636,178.66l1.14-.867-1.571-.95a6.672,6.672,0,0,0-1.059.837l1.091.631Z" transform="translate(-226.887 -173.347)"/><path d="M236.988,179.994l-1.553-.909.006-.015v1.967l1.811-.665Z" transform="translate(-222.615 -174.764)"/></g></g><g transform="translate(1.566 6.934)"><path class="c" d="M212.7,193.178v-2.3a6.96,6.96,0,0,1-2.219-1.513c-1.287-1.2-2.533-3.146-3.946-4.761s-2.532-2.372-1.861-3.554a4.38,4.38,0,0,1,2.639-1.822,6.021,6.021,0,0,1,4.366,1.5V163.076a4.481,4.481,0,0,1,2.027-3.512h0c1.12-.647,2.028-.122,2.028,1.171v7.71s2.794-2.481,3.923-.96c0,0,2.745-2.875,3.984-.447,0,0,2.015-1.628,2.924.261s.472,5.878,0,8.341S224.61,184,224.61,184v2.3Z" transform="translate(-204.469 -159.287)"/><g transform="translate(11.255 7.247)"><path class="j" d="M235.441,185.966s.254-3.518,1.547-4.355l-.046.013a8.457,8.457,0,0,0-1.5,1.03v-.066a.082.082,0,0,0,0,.066Z" transform="translate(-235.435 -180.744)"/><path class="j" d="M246.245,180.282V183.5s.357-3.309,1.1-4.109A6.635,6.635,0,0,0,246.245,180.282Z" transform="translate(-242.316 -179.332)"/><path class="j" d="M257.207,179.73h0v3.23s.2-3.254.9-3.735A3.646,3.646,0,0,0,257.207,179.73Z" transform="translate(-249.294 -179.226)"/></g></g><g transform="translate(0.827)"><path class="g" d="M224.738,145.253h0c-.252.145-.455.059-.455-.192v-2.554a.944.944,0,0,1,.455-.718h0c.251-.145.455-.059.455.192v2.554A.944.944,0,0,1,224.738,145.253Z" transform="translate(-216.342 -141.17)"/><path class="g" d="M211.089,159.676h0c-.178.308-.466.474-.644.372l-1.478-.853c-.178-.1-.178-.435,0-.744h0c.178-.308.466-.474.644-.372l1.478.853C211.267,159.035,211.267,159.368,211.089,159.676Z" transform="translate(-206.508 -151.565)"/><path class="g" d="M205.435,176.562v.073a1.014,1.014,0,0,1-.489.772l-2.022,1.167c-.27.156-.489.064-.489-.207v-.073a1.015,1.015,0,0,1,.489-.772l2.022-1.167C205.217,176.2,205.435,176.292,205.435,176.562Z" transform="translate(-202.435 -163.17)"/><path class="g" d="M240.381,156.459v-.073a1.015,1.015,0,0,1,.49-.772l2.022-1.167c.27-.156.489-.064.489.207v.073a1.015,1.015,0,0,1-.489.772l-2.022,1.167C240.6,156.822,240.381,156.729,240.381,156.459Z" transform="translate(-226.589 -149.224)"/><path class="g" d="M235.8,143.915h0c-.178-.1-.178-.435,0-.743l1.478-2.56c.178-.308.466-.474.644-.372h0c.178.1.178.436,0,.744l-1.478,2.56C236.266,143.851,235.978,144.018,235.8,143.915Z" transform="translate(-223.588 -140.21)"/></g></g><g transform="translate(143.192 55.106)"><g transform="translate(12.438 30.462)"><path class="k" d="M386.21,314.487v-.414a9.852,9.852,0,0,1-2.067,3.62c-.912.832-2.157,1.793-2.473,2.721-.329.965,1.732,1.289,2.584,1.138a5.26,5.26,0,0,0,2.969-1.594c.49-.6.8-1.316,1.153-1.79s1.157-1,1.346-1.551a3.491,3.491,0,0,0-.165-1.518c-.134-.511-.28-1.074-.454-1.026,0,.062,0,.315,0,.315a2.288,2.288,0,0,1-1.446.489C387.233,314.893,386.206,314.809,386.21,314.487Z" transform="translate(-370.353 -268.822)"/><path class="m" d="M385.712,314.279c.283-.253.567-.5.826-.735a8.388,8.388,0,0,0,1.764-2.818,3.968,3.968,0,0,0,.3-1.522v-1.648H391.5v2.683h0v.072l-.015.007a19.636,19.636,0,0,1-2.221,3.242,4.2,4.2,0,0,1-2.613,1.741C385.561,315.447,385.005,315.1,385.712,314.279Z" transform="translate(-372.748 -264.676)"/><path class="k" d="M355.172,306.643v-.414a9.854,9.854,0,0,1-2.067,3.62c-.912.832-2.156,1.793-2.473,2.721-.329.965,1.732,1.289,2.584,1.138a5.263,5.263,0,0,0,2.969-1.594c.49-.6.8-1.316,1.152-1.79s1.157-1,1.347-1.551a3.5,3.5,0,0,0-.165-1.518c-.134-.511-.28-1.074-.454-1.026,0,.062,0,.315,0,.315a2.284,2.284,0,0,1-1.446.489C356.195,307.049,355.168,306.965,355.172,306.643Z" transform="translate(-350.596 -263.829)"/><path class="m" d="M354.674,306.435c.283-.253.567-.5.826-.735a8.389,8.389,0,0,0,1.764-2.818,3.969,3.969,0,0,0,.3-1.522v-1.648h2.892V302.4h0v.072l-.015.007a19.646,19.646,0,0,1-2.221,3.242,4.2,4.2,0,0,1-2.614,1.741C354.523,307.6,353.967,307.26,354.674,306.435Z" transform="translate(-352.991 -259.683)"/><path class="i" d="M374.839,190.3c2.242,4.9-.081,22.148-.081,22.148a32.6,32.6,0,0,1,1.315,5.856c.4,4.133-.628,14.509-.628,14.509a3.13,3.13,0,0,1-2.923.116s-2.756-15.628-3.274-19.738c-.453-3.586-1.321-11.471-1.321-11.471l-2.468,11.452a21.317,21.317,0,0,1,.782,3.539c.234,2.417-2.108,13.67-2.108,13.67a6.429,6.429,0,0,1-2.892.087s-.828-14.933-1.046-17.845c-.367-4.89.932-20.147,1.829-23.041Z" transform="translate(-356.665 -189.579)"/><path class="k" d="M372.466,211.592l-.728-4.548s-3.08-.638-4.476-1.951a7.966,7.966,0,0,0,3.642,2.42l.818,3.5-1.43,10.6Z" transform="translate(-361.204 -199.454)"/></g><g transform="translate(0 0)"><path class="m" d="M338.244,144.093a4.143,4.143,0,0,0-3.679,1.649c-1.158,1.511-5.587,7.279-5.587,7.279s-6.529-3.268-6.85-3.655-.141-1.17-.052-1.6.234-1.388.33-1.658c.168-.469-.527-.343-.936.1s-.591,1.3-.8,1.444-1.758-1.639-2.512-2.5-1.107-1.465-1.613-1.11c-.364.256-.13.768.41,1.507a9.409,9.409,0,0,1,.7.978c.065.132-.135.238-.214.309-.146.131-.406.345-.424.55a1.8,1.8,0,0,1-.02.335c-.071.246-.375.361-.461.6-.062.174.006.369-.029.551-.022.117-.087.223-.108.34a.813.813,0,0,0,.242.634,6.1,6.1,0,0,0,1.948,1.255c.577.319,1.173.459,1.838.755s8.378,5.642,9.6,4.969,7.524-8.006,7.524-8.006C339.369,145.8,338.244,144.093,338.244,144.093Z" transform="translate(-316.374 -130.061)"/><path class="a" d="M373.58,144.508h0c2.874.2,3.076,1.586,3.8,3.1a4.919,4.919,0,0,1,.136,3.7l-2,5.8s.938,2.267,2.027,4.409c-5.027,2.806-11.3,1.331-12.816-.717-.064-.434.325-3.829.564-6.047-.885-2.221-1.119-3.629-.746-5.1.693-2.725,3.385-5.38,4.577-5.283Z" transform="translate(-346.923 -130.343)"/><g transform="translate(18.018)"><path class="k" d="M371.823,117.552h1.116a5.875,5.875,0,0,0,5.875-5.875h0a5.907,5.907,0,0,0-5.907-5.907h-1.052a5.907,5.907,0,0,0-5.907,5.907h0A5.876,5.876,0,0,0,371.823,117.552Z" transform="translate(-365.947 -105.769)"/><path class="k" d="M403.923,127.61h0a3.472,3.472,0,0,1-3.471-3.471v-7.433h0a3.471,3.471,0,0,1,3.471,3.471Z" transform="translate(-387.911 -112.73)"/><path class="k" d="M400.678,113.077l-.87,1.4a.8.8,0,0,0,1.134-.232A.866.866,0,0,0,400.678,113.077Z" transform="translate(-387.501 -110.421)"/><g transform="translate(0.671 2.602)"><path class="m" d="M369.236,112.927c-.68.4-1.519,2.111-1.437,5.694.07,3.037,1.055,3.787,1.549,4a5.226,5.226,0,0,0,2.374-.07v1.822s-1.28,1.487-1.2,2.323,1.849,1.033,3.048.217a7.757,7.757,0,0,0,1.967-2.059v-4.405a1.163,1.163,0,0,0,1.649.156,2.182,2.182,0,0,0,.467-2.965,1.326,1.326,0,0,0-2.116.422,7.327,7.327,0,0,1-3.446-1.027A5.531,5.531,0,0,1,369.236,112.927Z" transform="translate(-367.793 -112.927)"/></g><g transform="translate(4.407 7.154)"><path class="k" d="M378.072,125.83a.382.382,0,1,0,.4-.378A.388.388,0,0,0,378.072,125.83Z" transform="translate(-378.072 -125.452)"/></g><g transform="translate(3.079 10.106)"><path class="n" d="M375.3,133.575l-.887.283a.457.457,0,0,0,.577.318A.488.488,0,0,0,375.3,133.575Z" transform="translate(-374.417 -133.575)"/></g><g transform="translate(1.2 5.611)"><path class="k" d="M369.324,121.956l.773-.535a.451.451,0,0,0-.642-.132A.493.493,0,0,0,369.324,121.956Z" transform="translate(-369.248 -121.208)"/></g><g transform="translate(1.454 6.878)"><path class="k" d="M369.948,125.071a.382.382,0,1,0,.4-.378A.388.388,0,0,0,369.948,125.071Z" transform="translate(-369.947 -124.692)"/></g><g transform="translate(2.049 7.038)"><path class="n" d="M372.855,125.132l-.061,2.3-1.21-.375Z" transform="translate(-371.585 -125.132)"/></g><g transform="translate(4.6 10.729)"><path class="n" d="M378.6,136.788c.977-.128,2.986-.705,3.3-1.5a2.055,2.055,0,0,1-.7,1.014A10.58,10.58,0,0,1,378.6,137.4Z" transform="translate(-378.602 -135.288)"/></g></g><path class="d" d="M376.545,168.287a3.035,3.035,0,0,0,2.263-3.7,1.282,1.282,0,0,0-.052-.158.988.988,0,0,0-1.018-.675h0A2.937,2.937,0,0,0,379,161.88l.611-3.632a4.243,4.243,0,0,0-.155-1.762l2.02-2.337.373.26a5.04,5.04,0,0,1-.083,3.13l-2,5.8s.938,2.267,2.027,4.409a13,13,0,0,1-10.741.712A14.656,14.656,0,0,0,376.545,168.287Z" transform="translate(-351.174 -136.565)"/><g transform="translate(27.505 14.405)"><path class="m" d="M400.3,159.587c-2.61-10.668-4.54-14.226-7.71-14.185-.925,1.106-.67,4.448.793,6.477,0,0,3.261,6.88,3.781,9.326a34.423,34.423,0,0,1,.942,6.7,1.339,1.339,0,0,1-.362.879,6.941,6.941,0,0,0-.984,1.879c-.3.559-.632.768-.538.893a.722.722,0,0,0,.979.072,3.686,3.686,0,0,0,.742-.712,7.393,7.393,0,0,1-.588,1.979c-.669,1.509-.506,2.28,1.531,1.742,1.277-.337,2.079-1.4,2.269-4.469a23.67,23.67,0,0,0,.034-3.4A58.757,58.757,0,0,0,400.3,159.587Z" transform="translate(-392.048 -145.402)"/></g></g></g><g transform="translate(117.811 84.142)"><g transform="translate(28.382 15.28)"><path class="o" d="M331.494,242.468c.279-10.383-.553-12.871-3.317-14.773l-1.071,6.016s1.259,7.09,1.124,9.451a32.58,32.58,0,0,1-.811,6.346,1.264,1.264,0,0,1-.55.711,7.257,7.257,0,0,0-1.518,1.447c-.415.435-.769.543-.714.681a.683.683,0,0,0,.875.31,4.8,4.8,0,0,0,1-.542,6.354,6.354,0,0,1-1.023,1.758c-.987,1.21-1.03,1.953.962,1.971,1.248.011,2.245-.759,3.185-3.511a22.383,22.383,0,0,0,.878-3.09A55.641,55.641,0,0,0,331.494,242.468Z" transform="translate(-324.632 -227.695)"/></g><path class="c" d="M327.987,225.438a3.984,3.984,0,0,1,4.271,2.158c1.158,2.072,1.443,5.636,1.575,9.18a5.625,5.625,0,0,1-5.062.978Z" transform="translate(-298.386 -210.946)"/><path class="d" d="M327.987,225.438a3.984,3.984,0,0,1,4.271,2.158c1.158,2.072,1.443,5.636,1.575,9.18a5.625,5.625,0,0,1-5.062.978Z" transform="translate(-298.386 -210.946)"/><g transform="translate(14.753)"><g transform="translate(0 32.271)"><g transform="translate(12.708 35.602)"><path class="k" d="M328.121,376.12c.209.079.262.478.294,1.272.024.6.153,1.648-.551,1.858a2.2,2.2,0,0,1-2.184-.464c-.563-.706-.943-1.328-1.746-2.19A6.085,6.085,0,0,1,322.2,374.1c-.254-.947-.043-1.359.6-1.634.889-.379,2.285.859,2.982,1.054C326.389,373.69,327.912,376.04,328.121,376.12Z" transform="translate(-322.099 -372.396)"/></g><g transform="translate(16.012 38.239)"><path class="o" d="M333.908,380v.974a2.384,2.384,0,0,1-2.462.067c-.043-.094-.256-1.393-.256-1.393Z" transform="translate(-331.19 -379.649)"/></g><g transform="translate(0 44.94)"><path class="k" d="M297.975,398.088s.28.848.43,1.588a4.289,4.289,0,0,1,.085,2.017c-.206.443-1.011.729-2.258.719a7.327,7.327,0,0,0-2.929,1.023,7.74,7.74,0,0,1-3.683.584,3.509,3.509,0,0,1-2.439-1.233c-.18-.46.059-.937,2.674-2.051.024-.01,3.636-1.185,4.9-2.581Z" transform="translate(-287.135 -398.088)"/></g><g transform="translate(7.62 43.888)"><path class="o" d="M311.32,395.191s0,.723,0,1.136-.484,1.029-1.748.984c-.887-.032-1.507-.27-1.471-1v-1.053Z" transform="translate(-308.1 -395.191)"/></g><g transform="translate(4.029)"><path class="i" d="M313.555,300.105a26.473,26.473,0,0,0-1.15-5.074s.348-4.378.515-8.528c.18-4.483-.009-10.119.076-11.237,0,0-14.467-2.927-14.725,2.256s.571,18.375.742,20.652.564,4.29,1.035,7.98c.464,3.642,1.766,12.242,1.766,12.242a3.416,3.416,0,0,0,3.219-.066s1.018-10.363.911-12.99a22.444,22.444,0,0,0-1-5.734s.274-4.273.516-7.99.5-5.5.555-7.119l.312-.154s.317,6.413.488,8.689.533,4.46,1.192,8.689c.571,3.668,2.273,11.43,2.273,11.43a2.171,2.171,0,0,0,2.639-.117S314,303.288,313.555,300.105Z" transform="translate(-298.221 -274.442)"/></g><g transform="translate(11.827 6.765)"><path class="k" d="M319.674,296.345a30.281,30.281,0,0,0,5.266-3.289,11.614,11.614,0,0,1-3.772,3.317s-.761,7.966-.757,7.808l-.44-7.848Z" transform="translate(-319.674 -293.056)"/></g></g><g transform="translate(8.703 11.91)"><path class="o" d="M311.08,219.363l.856,4.712,4.256-.311-.894-5.341Z" transform="translate(-311.08 -218.423)"/></g><g transform="translate(4.038 14.491)"><path class="c" d="M312.517,227.941a3.584,3.584,0,0,0-3.673-2.373,48.013,48.013,0,0,0-7.122,1.778c-1.489.532-2.846,1.819-2.969,6.716,0,0-.5,11.418-.507,13.626a18.055,18.055,0,0,0,9.777.964c4.474-.978,5.014-2.834,5.014-2.834s.058-8.211-.076-11.757A35.715,35.715,0,0,0,312.517,227.941Z" transform="translate(-298.246 -225.526)"/></g><g transform="translate(4.46 2.09)"><g transform="translate(0 5.029)"><path class="o" d="M300.366,205.243s-1.079,1.721-.948,1.884.957.3.957.3Z" transform="translate(-299.407 -205.243)"/></g><g transform="translate(0.916)"><path class="o" d="M304.968,191.675c-2.251.528-2.881,1.536-3.013,5.133-.138,3.759.271,4.93.776,5.424.341.334,2.192.354,3.119.075,1.16-.348,3.779-1.343,4.972-3.259,1.4-2.254,1.718-5.273.133-6.473C308.726,190.887,305.884,191.46,304.968,191.675Z" transform="translate(-301.927 -191.406)"/></g><path class="p" d="M306.708,219.95c.764-.614.695-1.01.695-1.01a5.864,5.864,0,0,1-3.266.819A4.623,4.623,0,0,0,306.708,219.95Z" transform="translate(-302.418 -208.932)"/></g><g transform="translate(4.983)"><path class="k" d="M301.289,188.95a4.59,4.59,0,0,0,2.094,1.671c.431.492.194,2.409.953,2.713,0,0,.326-1.4,1.5-1.247s1.374,1.646.653,2.574-1.421.594-1.421.594a6.146,6.146,0,0,0,.985,3.085,5.306,5.306,0,0,0,6.167-3.359c1.35-3.2,1.386-6.047-.654-6.855a3.02,3.02,0,0,0-2.73-2.353c-2.832-.584-4.658,1.184-6.838,1.03C300.749,186.717,300.516,187.625,301.289,188.95Z" transform="translate(-300.844 -185.656)"/><g transform="translate(10.649 1.759)"><path class="k" d="M330.262,191.695l1.335-.828a.786.786,0,0,0-1.335.828Z" transform="translate(-330.144 -190.495)"/></g></g></g><path class="o" d="M268.928,230.48a5.426,5.426,0,0,0-3.221,2.064c-1.106,1.673-5.886,7.668-5.886,7.668s-6.878-3.442-7.216-3.85-.148-1.233-.055-1.688.247-1.463.348-1.746c.177-.494-.555-.361-.986.1s-.623,1.366-.838,1.522-1.851-1.727-2.646-2.635-1.167-1.544-1.7-1.169c-.383.27-.137.809.432,1.588a10,10,0,0,1,.735,1.031c.068.139-.142.251-.225.325-.154.138-.428.364-.447.579a1.864,1.864,0,0,1-.022.353c-.074.259-.394.381-.485.634-.065.184.007.389-.03.58-.024.123-.092.235-.114.358a.858.858,0,0,0,.254.668,6.438,6.438,0,0,0,2.052,1.323c.608.336,1.236.484,1.936.795s8.946,6.4,10.231,5.7,7.881-8.416,7.881-8.416A5.324,5.324,0,0,0,268.928,230.48Z" transform="translate(-246.544 -214.188)"/><path class="c" d="M296.19,229.8a4.939,4.939,0,0,0-3.966,1.85,55.689,55.689,0,0,0-4.01,5.16,5.052,5.052,0,0,0,3.988,3.754,30.066,30.066,0,0,0,3.988-4.957C297.057,233.843,297.261,230.984,296.19,229.8Z" transform="translate(-273.069 -213.753)"/><path class="d" d="M296.19,229.8a4.939,4.939,0,0,0-3.966,1.85,55.689,55.689,0,0,0-4.01,5.16,5.052,5.052,0,0,0,3.988,3.754,30.066,30.066,0,0,0,3.988-4.957C297.057,233.843,297.261,230.984,296.19,229.8Z" transform="translate(-273.069 -213.753)"/></g></g></svg>